<?xml version="1.0" encoding="UTF-8"?>
<svg xmlns="http://www.w3.org/2000/svg" version="1.1" xmlns:xlink="http://www.w3.org/1999/xlink" viewBox="0 0 200 200">
  <!-- Generator: Adobe Illustrator 30.2.1, SVG Export Plug-In . SVG Version: 2.1.1 Build 1)  -->
  <defs>
    <style>
      .st0 {
        stroke: url(#Steel);
      }

      .st0, .st1 {
        fill: none;
      }

      .st0, .st1, .st2 {
        stroke-miterlimit: 10;
      }

      .st3 {
        fill: url(#Silver);
      }

      .st4 {
        fill: url(#radial-gradient2);
      }

      .st4, .st5, .st6 {
        mix-blend-mode: multiply;
      }

      .st1 {
        opacity: .5;
        stroke: #231f20;
      }

      .st5 {
        fill: url(#radial-gradient);
      }

      .st7 {
        isolation: isolate;
      }

      .st8, .st9 {
        font-family: BebasNeue, 'Bebas Neue';
        font-size: 46px;
      }

      .st10 {
        font-family: Raleway-SemiBold, Raleway;
        font-size: 16.2px;
        font-weight: 600;
      }

      .st10, .st11 {
        fill: #2b2d2e;
      }

      .st12 {
        fill: #292c2b;
      }

      .st6 {
        fill: url(#radial-gradient1);
        opacity: .18;
      }

      .st2 {
        fill: url(#linear-gradient);
        stroke: #fff;
      }

      .st9 {
        fill: #282a2c;
      }
    </style>
    <linearGradient id="linear-gradient" x1="156.82" y1="39.03" x2="63.54" y2="139.12" gradientTransform="translate(2.71 -2.64) rotate(1.54)" gradientUnits="userSpaceOnUse">
      <stop offset="0" stop-color="#e5e2df"/>
      <stop offset="0" stop-color="#ded9d6"/>
      <stop offset=".04" stop-color="#cfcbc9"/>
      <stop offset=".11" stop-color="#a8a8a7"/>
      <stop offset=".21" stop-color="#697071"/>
      <stop offset=".26" stop-color="#465053"/>
      <stop offset=".37" stop-color="#878d8e"/>
      <stop offset=".46" stop-color="#b7b9ba"/>
      <stop offset=".53" stop-color="#d4d5d5"/>
      <stop offset=".57" stop-color="#e0e0e0"/>
      <stop offset=".63" stop-color="#d6d7d7"/>
      <stop offset=".73" stop-color="#bcbfc1"/>
      <stop offset=".86" stop-color="#91989d"/>
      <stop offset=".88" stop-color="#8b9298"/>
      <stop offset="1" stop-color="#d1d3d4"/>
      <stop offset="1" stop-color="#e7a9ac"/>
    </linearGradient>
    <radialGradient id="radial-gradient" cx="75.84" cy="130.67" fx="75.84" fy="130.67" r="85.48" gradientTransform="translate(58.94 -45.4) rotate(14.36)" gradientUnits="userSpaceOnUse">
      <stop offset=".91" stop-color="#fff" stop-opacity="0"/>
      <stop offset="1" stop-color="#571600"/>
    </radialGradient>
    <linearGradient id="Steel" x1="14.02" y1="100" x2="185.98" y2="100" gradientUnits="userSpaceOnUse">
      <stop offset="0" stop-color="#e5e2df"/>
      <stop offset="0" stop-color="#ded9d6"/>
      <stop offset=".04" stop-color="#cfcbc9"/>
      <stop offset=".11" stop-color="#a8a8a7"/>
      <stop offset=".21" stop-color="#697071"/>
      <stop offset=".26" stop-color="#465053"/>
      <stop offset=".37" stop-color="#878d8e"/>
      <stop offset=".46" stop-color="#b7b9ba"/>
      <stop offset=".53" stop-color="#d4d5d5"/>
      <stop offset=".57" stop-color="#e0e0e0"/>
      <stop offset=".63" stop-color="#d6d7d7"/>
      <stop offset=".73" stop-color="#bcbfc1"/>
      <stop offset=".86" stop-color="#91989d"/>
      <stop offset=".88" stop-color="#8b9298"/>
      <stop offset="1" stop-color="#d1d3d4"/>
      <stop offset="1" stop-color="#a7a9ac"/>
    </linearGradient>
    <radialGradient id="radial-gradient1" cx="100" cy="100" fx="100" fy="100" r="75" gradientTransform="translate(34.29 -25.23) rotate(17.31)" gradientUnits="userSpaceOnUse">
      <stop offset="0" stop-color="#fff" stop-opacity="0"/>
      <stop offset="1" stop-color="#571600"/>
    </radialGradient>
    <linearGradient id="Silver" x1="29.93" y1="100" x2="170.07" y2="100" gradientTransform="translate(31.66 -23.81) rotate(16.1)" gradientUnits="userSpaceOnUse">
      <stop offset="0" stop-color="#e5e2df"/>
      <stop offset="0" stop-color="#ded9d6"/>
      <stop offset=".06" stop-color="#cfcac8"/>
      <stop offset=".18" stop-color="#a8a4a6"/>
      <stop offset=".26" stop-color="#8b878d"/>
      <stop offset=".52" stop-color="#f3f4f4"/>
      <stop offset=".58" stop-color="#e4e5e5"/>
      <stop offset=".7" stop-color="#bfbec0"/>
      <stop offset=".86" stop-color="#847f84"/>
      <stop offset=".88" stop-color="#807b80"/>
      <stop offset="1" stop-color="#d1d3d4"/>
      <stop offset="1" stop-color="#a7a9ac"/>
    </linearGradient>
    <radialGradient id="radial-gradient2" cx="100" cy="100" fx="100" fy="100" r="70.07" gradientTransform="translate(31.66 -23.81) rotate(16.1)" gradientUnits="userSpaceOnUse">
      <stop offset=".89" stop-color="#fff" stop-opacity="0"/>
      <stop offset=".9" stop-color="#edf4f8" stop-opacity=".05"/>
      <stop offset=".92" stop-color="#bbd7e5" stop-opacity=".2"/>
      <stop offset=".94" stop-color="#97c2d7" stop-opacity=".31"/>
      <stop offset=".96" stop-color="#81b6cf" stop-opacity=".38"/>
      <stop offset=".98" stop-color="#7ab2cd" stop-opacity=".4"/>
    </radialGradient>
  </defs>
  <g class="st7">
    <g id="Layer_1">
      <g>
        <circle class="st2" cx="100" cy="100" r="92.25" transform="translate(-2.64 2.71) rotate(-1.54)"/>
        <path class="st12" d="M185.33,99.69c.01,3.5-.18,6.97-.58,10.36-.45,3.82-1.15,7.57-2.1,11.22-.4,1.57-.84,3.12-1.33,4.65h0c-.9,2.85-1.95,5.64-3.14,8.34-2.58,5.88-5.81,11.41-9.58,16.51-3.21,4.33-6.82,8.34-10.77,11.97-15.13,13.95-35.32,22.5-57.51,22.58-22.22.08-42.49-8.34-57.72-22.21-3.92-3.56-7.49-7.48-10.69-11.71-5.97-7.9-10.6-16.85-13.54-26.55-1.38-4.53-2.39-9.21-3.01-14.02-.44-3.45-.67-6.97-.68-10.54-.17-47.13,37.9-85.47,85.04-85.63,47.12-.17,85.46,37.89,85.63,85.02Z"/>
        <path class="st5" d="M183.27,119.33c-10.99,47.25-58.94,75.88-105.75,63.15-44.11-12-71.15-57.28-60.8-101.81C27.72,33.43,75.67,4.79,122.48,17.52c44.11,12,71.15,57.28,60.8,101.81Z"/>
        <path class="st0" d="M183.27,119.33c-10.99,47.25-58.94,75.88-105.75,63.15-44.11-12-71.15-57.28-60.8-101.81C27.72,33.43,75.67,4.79,122.48,17.52c44.11,12,71.15,57.28,60.8,101.81Z"/>
        <circle class="st1" cx="100" cy="100" r="92.25" transform="translate(-2.64 2.71) rotate(-1.54)"/>
      </g>
      <g>
        <circle class="st6" cx="100" cy="100" r="75" transform="translate(-25.23 34.29) rotate(-17.31)"/>
        <circle class="st3" cx="100" cy="100" r="70.07" transform="translate(-23.81 31.66) rotate(-16.1)"/>
        <circle class="st4" cx="100" cy="100" r="70.07" transform="translate(-23.81 31.66) rotate(-16.1)"/>
        <polygon class="st11" points="102.08 152.43 97.5 155.31 98.82 150.06 94.66 146.59 100.06 146.23 102.08 141.21 104.1 146.23 109.5 146.59 105.34 150.06 106.66 155.31 102.08 152.43"/>
        <polygon class="st11" points="81.06 149.38 77.11 151.86 78.25 147.33 74.66 144.34 79.32 144.02 81.06 139.69 82.8 144.02 87.46 144.34 83.88 147.33 85.01 151.86 81.06 149.38"/>
        <polygon class="st11" points="123.1 149.38 119.14 151.86 120.28 147.33 116.7 144.34 121.36 144.02 123.1 139.69 124.84 144.02 129.5 144.34 125.91 147.33 127.05 151.86 123.1 149.38"/>
        <polygon class="st11" points="102.08 52.01 97.5 54.89 98.82 49.64 94.66 46.17 100.06 45.81 102.08 40.79 104.1 45.81 109.5 46.17 105.34 49.64 106.66 54.89 102.08 52.01"/>
        <polygon class="st11" points="81.06 54.31 77.11 56.79 78.25 52.27 74.66 49.27 79.32 48.96 81.06 44.62 82.8 48.96 87.46 49.27 83.88 52.27 85.01 56.79 81.06 54.31"/>
        <polygon class="st11" points="123.1 54.31 119.14 56.79 120.28 52.27 116.7 49.27 121.36 48.96 123.1 44.62 124.84 48.96 129.5 49.27 125.91 52.27 127.05 56.79 123.1 54.31"/>
        <g>
          <text class="st8" transform="translate(39.31 111.7)"><tspan x="0" y="0">Starter</tspan></text>
          <text class="st9" transform="translate(39.31 111.7)"><tspan x="0" y="0">Starter</tspan></text>
        </g>
        <text class="st10" transform="translate(64 127.31)"><tspan x="0" y="0">Package</tspan></text>
      </g>
    </g>
  </g>
</svg>